<?xml version="1.0" encoding="UTF-8"?>
<!DOCTYPE svg PUBLIC "-//W3C//DTD SVG 1.1//EN" "http://www.w3.org/Graphics/SVG/1.1/DTD/svg11.dtd">
<svg xmlns="http://www.w3.org/2000/svg" version="1.1" width="1536px" height="1024px" style="shape-rendering:geometricPrecision; text-rendering:geometricPrecision; image-rendering:optimizeQuality; fill-rule:evenodd; clip-rule:evenodd" xmlns:xlink="http://www.w3.org/1999/xlink">
<g><path style="opacity:1" fill="#fefefd" d="M -0.5,-0.5 C 511.5,-0.5 1023.5,-0.5 1535.5,-0.5C 1535.5,340.833 1535.5,682.167 1535.5,1023.5C 1023.5,1023.5 511.5,1023.5 -0.5,1023.5C -0.5,682.167 -0.5,340.833 -0.5,-0.5 Z"/></g>
<g><path style="opacity:1" fill="#1d4157" d="M 449.5,617.5 C 447.386,601.538 443.553,585.871 438,570.5C 433.107,559.941 425.274,552.441 414.5,548C 398.833,541.833 383.167,535.667 367.5,529.5C 366.479,530.002 366.312,530.668 367,531.5C 374.085,542.667 380.918,554.001 387.5,565.5C 380.844,569.495 373.844,572.995 366.5,576C 372.342,581.011 378.009,586.177 383.5,591.5C 363.979,621.218 344.979,651.218 326.5,681.5C 319.833,681.833 313.167,682.167 306.5,682.5C 317.654,641.55 328.654,600.55 339.5,559.5C 345.546,560.627 351.546,561.96 357.5,563.5C 355.574,547.889 350.741,533.222 343,519.5C 328.165,542.499 313.832,565.832 300,589.5C 285.416,565.997 270.583,542.664 255.5,519.5C 246.934,532.864 241.934,547.531 240.5,563.5C 245.595,562.58 250.595,561.247 255.5,559.5C 256.442,559.608 257.275,559.941 258,560.5C 269.105,601.144 280.605,641.644 292.5,682C 285.32,682.229 278.32,681.729 271.5,680.5C 252.261,651.031 233.261,621.365 214.5,591.5C 219.991,586.177 225.658,581.011 231.5,576C 224.348,572.923 217.348,569.59 210.5,566C 216.956,554.252 223.789,542.752 231,531.5C 231.688,530.668 231.521,530.002 230.5,529.5C 211.043,536.228 192.043,544.062 173.5,553C 164.924,559.93 159.091,568.763 156,579.5C 152.642,591.461 150.142,603.461 148.5,615.5C 100.952,561.305 84.4522,498.638 99,427.5C 114.021,369.01 147.855,325.344 200.5,296.5C 212.928,290.591 225.262,285.424 237.5,281C 237.272,280.601 236.938,280.435 236.5,280.5C 322.412,257.02 395.912,277.686 457,342.5C 502.94,399.862 516.274,464.196 497,535.5C 487.554,566.722 471.72,594.055 449.5,617.5 Z"/></g>
<g><path style="opacity:1" fill="#0f253e" d="M 236.5,280.5 C 236.938,280.435 237.272,280.601 237.5,281C 225.262,285.424 212.928,290.591 200.5,296.5C 211.704,289.568 223.704,284.235 236.5,280.5 Z"/></g>
<g><path style="opacity:1" fill="#061930" d="M 982.5,316.5 C 989.313,315.509 996.313,315.175 1003.5,315.5C 1003.5,310.167 1003.5,304.833 1003.5,299.5C 983.167,299.5 962.833,299.5 942.5,299.5C 942.5,304.833 942.5,310.167 942.5,315.5C 950.019,315.175 957.352,315.508 964.5,316.5C 964.167,316.5 963.833,316.5 963.5,316.5C 956.167,316.5 948.833,316.5 941.5,316.5C 941.5,310.5 941.5,304.5 941.5,298.5C 962.833,298.5 984.167,298.5 1005.5,298.5C 1005.5,304.5 1005.5,310.5 1005.5,316.5C 997.833,316.5 990.167,316.5 982.5,316.5 Z"/></g>
<g><path style="opacity:1" fill="#133049" d="M 1169.5,298.5 C 1169.08,299.222 1168.42,299.722 1167.5,300C 1160.09,300.016 1153.76,300.85 1148.5,302.5C 1146.3,307.756 1144.3,313.089 1142.5,318.5C 1143.53,318.554 1144.7,318.888 1146,319.5C 1146.31,320.742 1145.81,321.742 1144.5,322.5C 1145.38,323.251 1146.38,323.751 1147.5,324C 1144.85,324.315 1144.19,325.482 1145.5,327.5C 1145.19,328.308 1144.69,328.975 1144,329.5C 1143.26,326.603 1142.76,323.603 1142.5,320.5C 1140.23,326.222 1137.89,331.222 1135.5,335.5C 1139.5,323.167 1143.5,310.833 1147.5,298.5C 1154.83,298.5 1162.17,298.5 1169.5,298.5 Z"/></g>
<g><path style="opacity:1" fill="#214459" d="M 577.5,299.5 C 578.332,327.664 578.832,355.997 579,384.5C 579.5,356.169 579.667,327.835 579.5,299.5C 596.167,299.5 612.833,299.5 629.5,299.5C 629.5,304.5 629.5,309.5 629.5,314.5C 618.162,314.333 606.828,314.5 595.5,315C 596.056,315.383 596.389,315.883 596.5,316.5C 595.511,321.975 595.178,327.642 595.5,333.5C 606.014,333.172 616.347,333.506 626.5,334.5C 616.161,334.334 605.828,334.5 595.5,335C 605.494,335.5 615.494,335.666 625.5,335.5C 625.5,340.167 625.5,344.833 625.5,349.5C 615.319,349.173 605.319,349.506 595.5,350.5C 595.5,356.5 595.5,362.5 595.5,368.5C 607.345,368.172 619.012,368.505 630.5,369.5C 618.829,369.333 607.162,369.5 595.5,370C 606.828,370.5 618.162,370.667 629.5,370.5C 629.5,375.5 629.5,380.5 629.5,385.5C 612.167,385.5 594.833,385.5 577.5,385.5C 577.5,356.833 577.5,328.167 577.5,299.5 Z"/></g>
<g><path style="opacity:1" fill="#09223c" d="M 1063.5,300.5 C 1058.4,300.206 1052.74,300.206 1046.5,300.5C 1049.99,313.461 1053.99,326.294 1058.5,339C 1058.43,339.765 1058.1,340.265 1057.5,340.5C 1053.13,326.562 1048.47,312.729 1043.5,299C 1046.83,298.833 1050.17,298.667 1053.5,298.5C 1057.24,298.514 1060.57,299.18 1063.5,300.5 Z"/></g>
<g><path style="opacity:1" fill="#082942" d="M 864.5,299.5 C 865.167,299.5 865.833,299.5 866.5,299.5C 866.831,322.339 866.497,345.006 865.5,367.5C 864.531,344.866 864.198,322.2 864.5,299.5 Z"/></g>
<g><path style="opacity:1" fill="#0b243d" d="M 1115.5,327.5 C 1114.9,327.265 1114.57,326.765 1114.5,326C 1117.48,317.573 1120.14,309.073 1122.5,300.5C 1116.37,300.711 1110.7,300.378 1105.5,299.5C 1111.64,298.51 1117.98,298.177 1124.5,298.5C 1121.7,308.227 1118.7,317.893 1115.5,327.5 Z"/></g>
<g><path style="opacity:1" fill="#7cb98b" d="M 389.5,403.5 C 389.297,419.85 389.631,436.184 390.5,452.5C 391.58,462.4 393.747,472.067 397,481.5C 400.893,489.968 405.226,497.968 410,505.5C 391.607,521.349 371.774,523.516 350.5,512C 342.079,505.498 338.912,496.998 341,486.5C 356.447,467.259 364.947,445.259 366.5,420.5C 366.823,416.774 366.489,413.107 365.5,409.5C 361.479,407.821 357.479,406.154 353.5,404.5C 340.593,394.706 332.759,381.706 330,365.5C 317.502,379.997 302.668,391.497 285.5,400C 268.619,409.35 250.619,415.183 231.5,417.5C 232.427,443.67 240.927,467.004 257,487.5C 258.432,500.974 252.932,510.308 240.5,515.5C 225.003,521.625 210.003,520.625 195.5,512.5C 192.548,510.215 189.882,507.548 187.5,504.5C 197.927,490.565 204.261,474.898 206.5,457.5C 208.045,436.2 209.045,414.867 209.5,393.5C 213.95,353.883 234.95,327.383 272.5,314C 288.605,310.365 304.605,310.698 320.5,315C 325.044,316.882 329.044,319.549 332.5,323C 359.096,327.26 375.93,342.427 383,368.5C 385.691,380.21 387.858,391.877 389.5,403.5 Z"/></g>
<g><path style="opacity:1" fill="#072840" d="M 1378.5,314.5 C 1378.5,315.167 1378.5,315.833 1378.5,316.5C 1367.17,316.5 1355.83,316.5 1344.5,316.5C 1344.5,322.167 1344.5,327.833 1344.5,333.5C 1343.17,327.432 1343.17,321.266 1344.5,315C 1355.83,314.5 1367.16,314.333 1378.5,314.5 Z"/></g>
<g><path style="opacity:1" fill="#fcfdfc" d="M 1269.5,316.5 C 1286.87,316.536 1296.2,325.203 1297.5,342.5C 1297.32,348.987 1295.65,354.987 1292.5,360.5C 1288.82,364.012 1284.48,366.512 1279.5,368C 1272.17,368.5 1264.84,368.666 1257.5,368.5C 1257.5,351.167 1257.5,333.833 1257.5,316.5C 1261.5,316.5 1265.5,316.5 1269.5,316.5 Z"/></g>
<g><path style="opacity:1" fill="#1a3a51" d="M 1285.5,301.5 C 1298.28,305.11 1307.11,313.11 1312,325.5C 1317.23,339.006 1316.39,352.006 1309.5,364.5C 1313.41,353.799 1314.41,342.799 1312.5,331.5C 1311.18,329.296 1309.68,327.963 1308,327.5C 1307.15,329.125 1306.15,329.458 1305,328.5C 1303.5,330.667 1301.67,332.5 1299.5,334C 1300.78,335.297 1300.62,336.464 1299,337.5C 1298.83,339.667 1298.67,341.833 1298.5,344C 1298.37,348.405 1298.87,351.238 1300,352.5C 1299.68,354.569 1298.84,354.902 1297.5,353.5C 1296.55,356.42 1294.88,358.753 1292.5,360.5C 1295.65,354.987 1297.32,348.987 1297.5,342.5C 1296.2,325.203 1286.87,316.536 1269.5,316.5C 1265.69,315.676 1261.69,315.176 1257.5,315C 1265.43,314.094 1273.27,314.594 1281,316.5C 1281.95,315.978 1282.78,315.311 1283.5,314.5C 1285.78,315.416 1286.95,314.416 1287,311.5C 1287.67,312.167 1288.33,312.833 1289,313.5C 1290.57,312.272 1292.07,310.272 1293.5,307.5C 1293.37,310.384 1293.87,313.384 1295,316.5C 1296,316.833 1297,317.167 1298,317.5C 1298.33,316.167 1298.67,314.833 1299,313.5C 1300.4,316.346 1301.9,316.679 1303.5,314.5C 1302.02,312.517 1300.35,310.684 1298.5,309C 1293.6,306.258 1289.27,303.758 1285.5,301.5 Z"/></g>
<g><path style="opacity:1" fill="#041125" d="M 931.5,361.5 C 930.503,341.007 930.169,320.34 930.5,299.5C 925.167,299.5 919.833,299.5 914.5,299.5C 914.667,320.503 914.5,341.503 914,362.5C 912.323,367.535 909.156,369.868 904.5,369.5C 908.754,368.415 911.587,365.748 913,361.5C 913.5,340.503 913.667,319.503 913.5,298.5C 919.5,298.5 925.5,298.5 931.5,298.5C 931.5,319.5 931.5,340.5 931.5,361.5 Z"/></g>
<g><path style="opacity:1" fill="#20445a" d="M 722.5,333.5 C 732.833,333.5 743.167,333.5 753.5,333.5C 743.341,334.33 733.008,334.83 722.5,335C 732.828,335.5 743.161,335.666 753.5,335.5C 753.5,340.167 753.5,344.833 753.5,349.5C 742.986,349.172 732.653,349.506 722.5,350.5C 722.5,356.833 722.5,363.167 722.5,369.5C 733.988,370.495 745.655,370.828 757.5,370.5C 757.5,375.5 757.5,380.5 757.5,385.5C 739.833,385.5 722.167,385.5 704.5,385.5C 704.5,385.167 704.5,384.833 704.5,384.5C 706.492,356.52 707.158,328.186 706.5,299.5C 723.5,299.5 740.5,299.5 757.5,299.5C 757.5,304.5 757.5,309.5 757.5,314.5C 745.829,314.333 734.162,314.5 722.5,315C 721.174,321.266 721.174,327.432 722.5,333.5 Z"/></g>
<g><path style="opacity:1" fill="#0a273e" d="M 688.5,367.5 C 687.503,345.006 687.169,322.339 687.5,299.5C 682.5,299.5 677.5,299.5 672.5,299.5C 672.667,321.169 672.5,342.836 672,364.5C 671.385,366.116 670.385,367.449 669,368.5C 668.601,368.272 668.435,367.938 668.5,367.5C 669.504,366.317 670.338,364.984 671,363.5C 671.5,341.836 671.667,320.169 671.5,298.5C 677.5,298.5 683.5,298.5 689.5,298.5C 689.813,321.545 689.479,344.545 688.5,367.5 Z"/></g>
<g><path style="opacity:1" fill="#214459" d="M 1283.5,300.5 C 1284.49,300.328 1285.16,300.662 1285.5,301.5C 1289.27,303.758 1293.6,306.258 1298.5,309C 1300.35,310.684 1302.02,312.517 1303.5,314.5C 1301.9,316.679 1300.4,316.346 1299,313.5C 1298.67,314.833 1298.33,316.167 1298,317.5C 1297,317.167 1296,316.833 1295,316.5C 1293.87,313.384 1293.37,310.384 1293.5,307.5C 1292.07,310.272 1290.57,312.272 1289,313.5C 1288.33,312.833 1287.67,312.167 1287,311.5C 1286.95,314.416 1285.78,315.416 1283.5,314.5C 1282.78,315.311 1281.95,315.978 1281,316.5C 1273.27,314.594 1265.43,314.094 1257.5,315C 1261.69,315.176 1265.69,315.676 1269.5,316.5C 1265.5,316.5 1261.5,316.5 1257.5,316.5C 1257.5,333.833 1257.5,351.167 1257.5,368.5C 1264.84,368.666 1272.17,368.5 1279.5,368C 1284.48,366.512 1288.82,364.012 1292.5,360.5C 1294.88,358.753 1296.55,356.42 1297.5,353.5C 1298.84,354.902 1299.68,354.569 1300,352.5C 1298.87,351.238 1298.37,348.405 1298.5,344C 1298.67,341.833 1298.83,339.667 1299,337.5C 1300.62,336.464 1300.78,335.297 1299.5,334C 1301.67,332.5 1303.5,330.667 1305,328.5C 1306.15,329.458 1307.15,329.125 1308,327.5C 1309.68,327.963 1311.18,329.296 1312.5,331.5C 1314.41,342.799 1313.41,353.799 1309.5,364.5C 1302.83,378.023 1291.83,385.357 1276.5,386.5C 1264.68,385.505 1252.68,385.172 1240.5,385.5C 1240.5,356.833 1240.5,328.167 1240.5,299.5C 1254.07,299.069 1267.57,299.735 1281,301.5C 1282.07,301.472 1282.9,301.139 1283.5,300.5 Z"/></g>
<g><path style="opacity:1" fill="#6e8492" d="M 963.5,316.5 C 963.833,316.5 964.167,316.5 964.5,316.5C 964.5,339.833 964.5,363.167 964.5,386.5C 970.5,386.5 976.5,386.5 982.5,386.5C 976.355,387.49 970.022,387.823 963.5,387.5C 963.5,363.833 963.5,340.167 963.5,316.5 Z"/></g>
<g><path style="opacity:1" fill="#05152d" d="M 1378.5,316.5 C 1378.5,315.833 1378.5,315.167 1378.5,314.5C 1378.5,309.5 1378.5,304.5 1378.5,299.5C 1361.5,299.5 1344.5,299.5 1327.5,299.5C 1327.5,328.167 1327.5,356.833 1327.5,385.5C 1345.17,385.5 1362.83,385.5 1380.5,385.5C 1380.5,380.5 1380.5,375.5 1380.5,370.5C 1368.5,370.667 1356.5,370.5 1344.5,370C 1356.83,369.5 1369.16,369.333 1381.5,369.5C 1381.5,375.167 1381.5,380.833 1381.5,386.5C 1363.17,386.5 1344.83,386.5 1326.5,386.5C 1326.5,357.167 1326.5,327.833 1326.5,298.5C 1344.5,298.5 1362.5,298.5 1380.5,298.5C 1381.12,304.926 1380.45,310.926 1378.5,316.5 Z"/></g>
<g><path style="opacity:1" fill="#011832" d="M 1239.5,298.5 C 1254.26,298.007 1268.92,298.673 1283.5,300.5C 1282.9,301.139 1282.07,301.472 1281,301.5C 1267.57,299.735 1254.07,299.069 1240.5,299.5C 1240.5,328.167 1240.5,356.833 1240.5,385.5C 1252.68,385.172 1264.68,385.505 1276.5,386.5C 1274.83,386.5 1273.17,386.5 1271.5,386.5C 1260.83,386.5 1250.17,386.5 1239.5,386.5C 1239.5,357.167 1239.5,327.833 1239.5,298.5 Z"/></g>
<g><path style="opacity:1" fill="#21445a" d="M 1378.5,314.5 C 1367.16,314.333 1355.83,314.5 1344.5,315C 1343.17,321.266 1343.17,327.432 1344.5,333.5C 1354.83,333.5 1365.17,333.5 1375.5,333.5C 1365.34,334.33 1355.01,334.83 1344.5,335C 1354.83,335.5 1365.16,335.666 1375.5,335.5C 1375.5,340.167 1375.5,344.833 1375.5,349.5C 1364.83,349.5 1354.17,349.5 1343.5,349.5C 1343.18,355.69 1343.51,361.69 1344.5,367.5C 1356.83,368.167 1369.17,368.833 1381.5,369.5C 1369.16,369.333 1356.83,369.5 1344.5,370C 1356.5,370.5 1368.5,370.667 1380.5,370.5C 1380.5,375.5 1380.5,380.5 1380.5,385.5C 1362.83,385.5 1345.17,385.5 1327.5,385.5C 1327.5,356.833 1327.5,328.167 1327.5,299.5C 1344.5,299.5 1361.5,299.5 1378.5,299.5C 1378.5,304.5 1378.5,309.5 1378.5,314.5 Z"/></g>
<g><path style="opacity:1" fill="#05263f" d="M 577.5,299.5 C 594.992,298.503 612.659,298.17 630.5,298.5C 630.5,304.5 630.5,310.5 630.5,316.5C 619.167,316.5 607.833,316.5 596.5,316.5C 596.389,315.883 596.056,315.383 595.5,315C 606.828,314.5 618.162,314.333 629.5,314.5C 629.5,309.5 629.5,304.5 629.5,299.5C 612.833,299.5 596.167,299.5 579.5,299.5C 579.667,327.835 579.5,356.169 579,384.5C 578.832,355.997 578.332,327.664 577.5,299.5 Z"/></g>
<g><path style="opacity:1" fill="#021127" d="M 864.5,299.5 C 870.31,298.51 876.31,298.177 882.5,298.5C 882.333,319.503 882.5,340.503 883,361.5C 883.791,362.745 884.291,364.078 884.5,365.5C 883.21,364.942 882.377,363.942 882,362.5C 881.5,341.503 881.333,320.503 881.5,299.5C 876.5,299.5 871.5,299.5 866.5,299.5C 865.833,299.5 865.167,299.5 864.5,299.5 Z"/></g>
<g><path style="opacity:1" fill="#0a1f39" d="M 1114.5,328.5 C 1110.94,341.528 1106.6,354.194 1101.5,366.5C 1105.06,353.472 1109.4,340.806 1114.5,328.5 Z"/></g>
<g><path style="opacity:1" fill="#041325" d="M 626.5,334.5 C 626.5,339.833 626.5,345.167 626.5,350.5C 616.167,350.5 605.833,350.5 595.5,350.5C 605.319,349.506 615.319,349.173 625.5,349.5C 625.5,344.833 625.5,340.167 625.5,335.5C 615.494,335.666 605.494,335.5 595.5,335C 605.828,334.5 616.161,334.334 626.5,334.5 Z"/></g>
<g><path style="opacity:1" fill="#041326" d="M 753.5,333.5 C 754.489,338.975 754.822,344.642 754.5,350.5C 744.167,350.5 733.833,350.5 723.5,350.5C 723.167,350.5 722.833,350.5 722.5,350.5C 732.653,349.506 742.986,349.172 753.5,349.5C 753.5,344.833 753.5,340.167 753.5,335.5C 743.161,335.666 732.828,335.5 722.5,335C 733.008,334.83 743.341,334.33 753.5,333.5 Z"/></g>
<g><path style="opacity:1" fill="#041124" d="M 1375.5,333.5 C 1376.49,338.975 1376.82,344.642 1376.5,350.5C 1365.83,350.5 1355.17,350.5 1344.5,350.5C 1344.5,356.167 1344.5,361.833 1344.5,367.5C 1343.51,361.69 1343.18,355.69 1343.5,349.5C 1354.17,349.5 1364.83,349.5 1375.5,349.5C 1375.5,344.833 1375.5,340.167 1375.5,335.5C 1365.16,335.666 1354.83,335.5 1344.5,335C 1355.01,334.83 1365.34,334.33 1375.5,333.5 Z"/></g>
<g><path style="opacity:1" fill="#082943" d="M 722.5,333.5 C 721.174,327.432 721.174,321.266 722.5,315C 734.162,314.5 745.829,314.333 757.5,314.5C 757.5,309.5 757.5,304.5 757.5,299.5C 740.5,299.5 723.5,299.5 706.5,299.5C 707.158,328.186 706.492,356.52 704.5,384.5C 704.5,355.833 704.5,327.167 704.5,298.5C 722.5,298.5 740.5,298.5 758.5,298.5C 758.5,304.5 758.5,310.5 758.5,316.5C 746.5,316.5 734.5,316.5 722.5,316.5C 722.5,322.167 722.5,327.833 722.5,333.5 Z"/></g>
<g><path style="opacity:1" fill="#1f4359" d="M 1169.5,298.5 C 1180.35,327.552 1190.68,356.885 1200.5,386.5C 1193.87,387.497 1187.2,387.83 1180.5,387.5C 1179.95,382.303 1178.62,377.303 1176.5,372.5C 1164.85,371.501 1153.19,371.168 1141.5,371.5C 1140.74,376.43 1139.41,381.097 1137.5,385.5C 1131.49,385.666 1125.49,385.499 1119.5,385C 1120.79,383.708 1120.79,382.542 1119.5,381.5C 1124.26,365.878 1129.6,350.545 1135.5,335.5C 1137.89,331.222 1140.23,326.222 1142.5,320.5C 1142.76,323.603 1143.26,326.603 1144,329.5C 1144.69,328.975 1145.19,328.308 1145.5,327.5C 1144.19,325.482 1144.85,324.315 1147.5,324C 1146.38,323.751 1145.38,323.251 1144.5,322.5C 1145.81,321.742 1146.31,320.742 1146,319.5C 1144.7,318.888 1143.53,318.554 1142.5,318.5C 1144.3,313.089 1146.3,307.756 1148.5,302.5C 1153.76,300.85 1160.09,300.016 1167.5,300C 1168.42,299.722 1169.08,299.222 1169.5,298.5 Z"/></g>
<g><path style="opacity:1" fill="#f8fafa" d="M 1158.5,319.5 C 1162.77,330.806 1166.77,342.306 1170.5,354C 1162.83,354.667 1155.17,354.667 1147.5,354C 1151.87,342.736 1155.53,331.236 1158.5,319.5 Z"/></g>
<g><path style="opacity:1" fill="#1e4157" d="M 787.5,352.5 C 788.155,359.556 791.822,365.056 798.5,369C 805.805,373.131 813.471,374.131 821.5,372C 820.906,371.536 820.239,371.369 819.5,371.5C 826.573,370.035 832.406,366.368 837,360.5C 842.462,362.807 847.295,365.974 851.5,370C 838.71,387.597 821.71,393.264 800.5,387C 775.138,377.124 764.638,358.624 769,331.5C 776.5,309.322 792,297.655 815.5,296.5C 830.69,297.177 842.856,303.51 852,315.5C 852.749,316.635 852.583,317.635 851.5,318.5C 846.906,320.713 842.406,323.047 838,325.5C 826.599,313.561 813.432,311.394 798.5,319C 787.572,327.619 783.905,338.785 787.5,352.5 Z"/></g>
<g><path style="opacity:1" fill="#1f4258" d="M 866.5,299.5 C 871.5,299.5 876.5,299.5 881.5,299.5C 881.333,320.503 881.5,341.503 882,362.5C 882.377,363.942 883.21,364.942 884.5,365.5C 890.381,370.362 897.048,371.695 904.5,369.5C 909.156,369.868 912.323,367.535 914,362.5C 914.5,341.503 914.667,320.503 914.5,299.5C 919.833,299.5 925.167,299.5 930.5,299.5C 930.169,320.34 930.503,341.007 931.5,361.5C 928.763,376.737 919.763,385.904 904.5,389C 892.195,390.674 881.362,387.507 872,379.5C 869.046,375.925 866.879,371.925 865.5,367.5C 866.497,345.006 866.831,322.339 866.5,299.5 Z"/></g>
<g><path style="opacity:1" fill="#0c253f" d="M 787.5,352.5 C 793.154,367.003 803.821,373.336 819.5,371.5C 820.239,371.369 820.906,371.536 821.5,372C 813.471,374.131 805.805,373.131 798.5,369C 791.822,365.056 788.155,359.556 787.5,352.5 Z"/></g>
<g><path style="opacity:1" fill="#00122a" d="M 964.5,316.5 C 965.498,339.327 965.831,362.327 965.5,385.5C 970.833,385.5 976.167,385.5 981.5,385.5C 981.169,362.327 981.502,339.327 982.5,316.5C 982.5,339.833 982.5,363.167 982.5,386.5C 976.5,386.5 970.5,386.5 964.5,386.5C 964.5,363.167 964.5,339.833 964.5,316.5 Z"/></g>
<g><path style="opacity:1" fill="#1f4258" d="M 1063.5,300.5 C 1071.41,322.729 1078.24,345.395 1084,368.5C 1090.41,345.153 1097.58,322.153 1105.5,299.5C 1110.7,300.378 1116.37,300.711 1122.5,300.5C 1120.14,309.073 1117.48,317.573 1114.5,326C 1114.57,326.765 1114.9,327.265 1115.5,327.5C 1115.5,328.167 1115.17,328.5 1114.5,328.5C 1109.4,340.806 1105.06,353.472 1101.5,366.5C 1100.11,373.327 1098.11,379.994 1095.5,386.5C 1087.86,387.497 1080.2,387.831 1072.5,387.5C 1067.7,371.762 1062.7,356.095 1057.5,340.5C 1058.1,340.265 1058.43,339.765 1058.5,339C 1053.99,326.294 1049.99,313.461 1046.5,300.5C 1052.74,300.206 1058.4,300.206 1063.5,300.5 Z"/></g>
<g><path style="opacity:1" fill="#000b22" d="M 1015.5,298.5 C 1021.5,298.5 1027.5,298.5 1033.5,298.5C 1033.5,327.833 1033.5,357.167 1033.5,386.5C 1027.5,386.5 1021.5,386.5 1015.5,386.5C 1015.5,357.167 1015.5,327.833 1015.5,298.5 Z"/></g>
<g><path style="opacity:1" fill="#20445a" d="M 1016.5,299.5 C 1021.83,299.5 1027.17,299.5 1032.5,299.5C 1032.5,328.167 1032.5,356.833 1032.5,385.5C 1027.17,385.5 1021.83,385.5 1016.5,385.5C 1016.5,356.833 1016.5,328.167 1016.5,299.5 Z"/></g>
<g><path style="opacity:1" fill="#93a2ad" d="M 722.5,350.5 C 722.833,350.5 723.167,350.5 723.5,350.5C 723.5,356.5 723.5,362.5 723.5,368.5C 735.678,368.172 747.678,368.505 759.5,369.5C 747.167,369.5 734.833,369.5 722.5,369.5C 722.5,363.167 722.5,356.833 722.5,350.5 Z"/></g>
<g><path style="opacity:1" fill="#1f4258" d="M 688.5,367.5 C 684.468,380.681 675.468,387.847 661.5,389C 657.642,389.81 653.976,389.643 650.5,388.5C 651.552,388.649 652.552,388.483 653.5,388C 643.403,385.199 636.903,379.366 634,370.5C 636.687,369.353 638.521,368.02 639.5,366.5C 641.22,365.136 643.22,364.136 645.5,363.5C 652.186,371.063 659.853,372.397 668.5,367.5C 668.435,367.938 668.601,368.272 669,368.5C 670.385,367.449 671.385,366.116 672,364.5C 672.5,342.836 672.667,321.169 672.5,299.5C 677.5,299.5 682.5,299.5 687.5,299.5C 687.169,322.339 687.503,345.006 688.5,367.5 Z"/></g>
<g><path style="opacity:1" fill="#b1bec4" d="M 1015.5,298.5 C 1015.5,327.833 1015.5,357.167 1015.5,386.5C 1021.5,386.5 1027.5,386.5 1033.5,386.5C 1027.36,387.49 1021.02,387.823 1014.5,387.5C 1014.17,357.662 1014.5,327.995 1015.5,298.5 Z"/></g>
<g><path style="opacity:1" fill="#061d34" d="M 722.5,369.5 C 734.833,369.5 747.167,369.5 759.5,369.5C 759.5,375.167 759.5,380.833 759.5,386.5C 740.992,386.83 722.659,386.497 704.5,385.5C 722.167,385.5 739.833,385.5 757.5,385.5C 757.5,380.5 757.5,375.5 757.5,370.5C 745.655,370.828 733.988,370.495 722.5,369.5 Z"/></g>
<g><path style="opacity:1" fill="#20445a" d="M 982.5,316.5 C 981.502,339.327 981.169,362.327 981.5,385.5C 976.167,385.5 970.833,385.5 965.5,385.5C 965.831,362.327 965.498,339.327 964.5,316.5C 957.352,315.508 950.019,315.175 942.5,315.5C 942.5,310.167 942.5,304.833 942.5,299.5C 962.833,299.5 983.167,299.5 1003.5,299.5C 1003.5,304.833 1003.5,310.167 1003.5,315.5C 996.313,315.175 989.313,315.509 982.5,316.5 Z"/></g>
<g><path style="opacity:1" fill="#04152c" d="M 639.5,366.5 C 638.521,368.02 636.687,369.353 634,370.5C 636.903,379.366 643.403,385.199 653.5,388C 652.552,388.483 651.552,388.649 650.5,388.5C 642.31,385.644 636.31,380.311 632.5,372.5C 632.44,371.957 632.107,371.624 631.5,371.5C 630.506,376.456 630.173,381.456 630.5,386.5C 612.833,386.5 595.167,386.5 577.5,386.5C 577.5,386.167 577.5,385.833 577.5,385.5C 594.833,385.5 612.167,385.5 629.5,385.5C 629.5,380.5 629.5,375.5 629.5,370.5C 618.162,370.667 606.828,370.5 595.5,370C 607.162,369.5 618.829,369.333 630.5,369.5C 633.574,368.698 636.574,367.698 639.5,366.5 Z"/></g>
<g><path style="opacity:1" fill="#020d24" d="M 1119.5,381.5 C 1120.79,382.542 1120.79,383.708 1119.5,385C 1125.49,385.499 1131.49,385.666 1137.5,385.5C 1137.5,385.833 1137.5,386.167 1137.5,386.5C 1130.98,386.823 1124.64,386.49 1118.5,385.5C 1118.83,384.167 1119.17,382.833 1119.5,381.5 Z"/></g>
<g><path style="opacity:1" fill="#7b909c" d="M 632.5,372.5 C 631.513,377.305 631.179,382.305 631.5,387.5C 613.326,387.83 595.326,387.497 577.5,386.5C 595.167,386.5 612.833,386.5 630.5,386.5C 630.173,381.456 630.506,376.456 631.5,371.5C 632.107,371.624 632.44,371.957 632.5,372.5 Z"/></g>
<g><path style="opacity:1" fill="#8297a1" d="M 1118.5,385.5 C 1124.64,386.49 1130.98,386.823 1137.5,386.5C 1130.99,387.818 1124.32,387.818 1117.5,386.5C 1117.62,385.893 1117.96,385.56 1118.5,385.5 Z"/></g>
<g><path style="opacity:1" fill="#6e8490" d="M 1239.5,298.5 C 1239.5,327.833 1239.5,357.167 1239.5,386.5C 1250.17,386.5 1260.83,386.5 1271.5,386.5C 1260.68,387.495 1249.68,387.828 1238.5,387.5C 1238.17,357.662 1238.5,327.995 1239.5,298.5 Z"/></g>
<g><path style="opacity:1" fill="#0c274e" d="M 353.5,404.5 C 357.479,406.154 361.479,407.821 365.5,409.5C 366.489,413.107 366.823,416.774 366.5,420.5C 365.834,417.311 365.167,413.977 364.5,410.5C 360.322,409.248 356.655,407.248 353.5,404.5 Z"/></g>
<g><path style="opacity:1" fill="#1a3754" d="M 209.5,393.5 C 209.045,414.867 208.045,436.2 206.5,457.5C 205.84,456.036 205.507,454.369 205.5,452.5C 206.248,437.845 206.748,423.179 207,408.5C 207.211,402.037 208.044,397.037 209.5,393.5 Z"/></g>
<g><path style="opacity:1" fill="#06234b" d="M 390.5,452.5 C 389.631,436.184 389.297,419.85 389.5,403.5C 390.274,417.268 390.941,431.768 391.5,447C 391.494,449.033 391.161,450.866 390.5,452.5 Z"/></g>
<g><path style="opacity:1" fill="#0c263f" d="M 1303.5,419.5 C 1309.51,419.334 1315.51,419.501 1321.5,420C 1318.63,424.917 1315.63,429.751 1312.5,434.5C 1306.53,435.664 1300.53,435.83 1294.5,435C 1297.75,429.928 1300.75,424.762 1303.5,419.5 Z"/></g>
<g><path style="opacity:1" fill="#20445a" d="M 1304.5,420.5 C 1309.51,420.334 1314.51,420.501 1319.5,421C 1316.83,425 1314.17,429 1311.5,433C 1306.83,433.667 1302.17,433.667 1297.5,433C 1300.24,429.021 1302.57,424.855 1304.5,420.5 Z"/></g>
<g><path style="opacity:1" fill="#020d1f" d="M 992.5,444.5 C 986.167,443.167 979.833,443.167 973.5,444.5C 976.258,443.182 979.424,442.515 983,442.5C 986.576,442.515 989.742,443.182 992.5,444.5 Z"/></g>
<g><path style="opacity:1" fill="#061022" d="M 1099.5,443.5 C 1105.31,442.51 1111.31,442.177 1117.5,442.5C 1117.96,445.221 1118.63,447.888 1119.5,450.5C 1117.96,449.16 1116.63,446.994 1115.5,444C 1110.18,443.501 1104.84,443.334 1099.5,443.5 Z"/></g>
<g><path style="opacity:1" fill="#1d3f56" d="M 681.5,440.5 C 713.498,441.328 728.665,457.661 727,489.5C 721.686,510.164 708.352,521.164 687,522.5C 661.881,519.381 648.381,505.214 646.5,480C 649.215,458.791 660.881,445.624 681.5,440.5 Z"/></g>
<g><path style="opacity:1" fill="#20445a" d="M 1246.5,443.5 C 1246.5,468.833 1246.5,494.167 1246.5,519.5C 1242.5,519.5 1238.5,519.5 1234.5,519.5C 1234.5,494.167 1234.5,468.833 1234.5,443.5C 1238.5,443.5 1242.5,443.5 1246.5,443.5 Z"/></g>
<g><path style="opacity:1" fill="#1f445a" d="M 1052.5,457.5 C 1051.5,477.993 1051.17,498.66 1051.5,519.5C 1047.17,519.5 1042.83,519.5 1038.5,519.5C 1038.83,498.66 1038.5,477.993 1037.5,457.5C 1031.36,456.51 1025.02,456.177 1018.5,456.5C 1018.5,452.167 1018.5,447.833 1018.5,443.5C 1036.17,443.5 1053.83,443.5 1071.5,443.5C 1071.5,447.833 1071.5,452.167 1071.5,456.5C 1064.98,456.177 1058.64,456.51 1052.5,457.5 Z"/></g>
<g><path style="opacity:1" fill="#1d4056" d="M 1296.5,440.5 C 1320.26,439.774 1335.43,450.774 1342,473.5C 1343.76,502.083 1330.42,518.416 1302,522.5C 1273.63,518.466 1260.3,502.133 1262,473.5C 1266.81,455.371 1278.31,444.371 1296.5,440.5 Z"/></g>
<g><path style="opacity:1" fill="#fcfdfc" d="M 680.5,455.5 C 699.93,453.611 710.597,462.277 712.5,481.5C 711.491,497.843 702.824,506.509 686.5,507.5C 674.8,506.643 666.967,500.643 663,489.5C 659.635,473.225 665.468,461.892 680.5,455.5 Z"/></g>
<g><path style="opacity:1" fill="#fcfcfc" d="M 1294.5,455.5 C 1314.11,453.45 1325.11,462.117 1327.5,481.5C 1324.5,501.996 1312.83,510.163 1292.5,506C 1281.93,501.084 1276.6,492.751 1276.5,481C 1276.61,472.998 1279.61,466.332 1285.5,461C 1288.56,459.141 1291.56,457.308 1294.5,455.5 Z"/></g>
<g><path style="opacity:1" fill="#12273c" d="M 846.5,519.5 C 845.503,499.007 845.169,478.34 845.5,457.5C 851.645,456.51 857.978,456.177 864.5,456.5C 864.5,452.167 864.5,447.833 864.5,443.5C 847.167,443.5 829.833,443.5 812.5,443.5C 812.5,447.833 812.5,452.167 812.5,456.5C 818.69,456.177 824.69,456.51 830.5,457.5C 823.833,457.5 817.167,457.5 810.5,457.5C 810.5,452.5 810.5,447.5 810.5,442.5C 828.833,442.5 847.167,442.5 865.5,442.5C 865.5,447.5 865.5,452.5 865.5,457.5C 859.167,457.5 852.833,457.5 846.5,457.5C 846.5,478.167 846.5,498.833 846.5,519.5 Z"/></g>
<g><path style="opacity:1" fill="#031228" d="M 1052.5,457.5 C 1058.64,456.51 1064.98,456.177 1071.5,456.5C 1071.5,452.167 1071.5,447.833 1071.5,443.5C 1053.83,443.5 1036.17,443.5 1018.5,443.5C 1018.5,447.833 1018.5,452.167 1018.5,456.5C 1025.02,456.177 1031.36,456.51 1037.5,457.5C 1030.83,457.5 1024.17,457.5 1017.5,457.5C 1017.5,452.5 1017.5,447.5 1017.5,442.5C 1035.83,442.5 1054.17,442.5 1072.5,442.5C 1072.5,447.5 1072.5,452.5 1072.5,457.5C 1065.83,457.5 1059.17,457.5 1052.5,457.5 Z"/></g>
<g><path style="opacity:1" fill="#011329" d="M 1403.5,442.5 C 1408.17,442.5 1412.83,442.5 1417.5,442.5C 1417.5,468.5 1417.5,494.5 1417.5,520.5C 1413.3,520.817 1409.3,520.483 1405.5,519.5C 1409.17,519.5 1412.83,519.5 1416.5,519.5C 1416.5,494.167 1416.5,468.833 1416.5,443.5C 1412.5,443.5 1408.5,443.5 1404.5,443.5C 1404.67,459.503 1404.5,475.503 1404,491.5C 1403.5,475.17 1403.33,458.837 1403.5,442.5 Z"/></g>
<g><path style="opacity:1" fill="#25475d" d="M 845.5,457.5 C 844.503,477.993 844.169,498.66 844.5,519.5C 840.5,519.5 836.5,519.5 832.5,519.5C 832.667,498.831 832.5,478.164 832,457.5C 831.5,478.497 831.333,499.497 831.5,520.5C 830.503,499.673 830.169,478.673 830.5,457.5C 824.69,456.51 818.69,456.177 812.5,456.5C 812.5,452.167 812.5,447.833 812.5,443.5C 829.833,443.5 847.167,443.5 864.5,443.5C 864.5,447.833 864.5,452.167 864.5,456.5C 857.978,456.177 851.645,456.51 845.5,457.5 Z"/></g>
<g><path style="opacity:1" fill="#11263e" d="M 1178.5,442.5 C 1149.91,455.243 1142.57,476.243 1156.5,505.5C 1151.46,499.907 1148.63,493.24 1148,485.5C 1147.06,465.221 1155.89,451.054 1174.5,443C 1175.79,442.51 1177.13,442.343 1178.5,442.5 Z"/></g>
<g><path style="opacity:1" fill="#1f4359" d="M 1403.5,442.5 C 1403.33,458.837 1403.5,475.17 1404,491.5C 1404.5,475.503 1404.67,459.503 1404.5,443.5C 1408.5,443.5 1412.5,443.5 1416.5,443.5C 1416.5,468.833 1416.5,494.167 1416.5,519.5C 1412.83,519.5 1409.17,519.5 1405.5,519.5C 1393.67,502.994 1382.01,486.994 1370.5,471.5C 1369.5,487.325 1369.17,503.325 1369.5,519.5C 1365.5,519.5 1361.5,519.5 1357.5,519.5C 1357.5,494.167 1357.5,468.833 1357.5,443.5C 1360.85,443.335 1364.18,443.502 1367.5,444C 1369.7,447.023 1372.03,449.856 1374.5,452.5C 1383.8,465.32 1392.97,478.32 1402,491.5C 1402.17,474.995 1402.67,458.662 1403.5,442.5 Z"/></g>
<g><path style="opacity:1" fill="#000a21" d="M 1037.5,457.5 C 1038.5,477.993 1038.83,498.66 1038.5,519.5C 1042.83,519.5 1047.17,519.5 1051.5,519.5C 1051.17,498.66 1051.5,477.993 1052.5,457.5C 1052.5,478.5 1052.5,499.5 1052.5,520.5C 1047.5,520.5 1042.5,520.5 1037.5,520.5C 1037.5,499.5 1037.5,478.5 1037.5,457.5 Z"/></g>
<g><path style="opacity:1" fill="#0b2f47" d="M 1374.5,452.5 C 1372.03,449.856 1369.7,447.023 1367.5,444C 1364.18,443.502 1360.85,443.335 1357.5,443.5C 1357.5,468.833 1357.5,494.167 1357.5,519.5C 1356.83,519.5 1356.17,519.5 1355.5,519.5C 1355.5,493.833 1355.5,468.167 1355.5,442.5C 1359.85,442.334 1364.18,442.501 1368.5,443C 1371.15,445.802 1373.15,448.968 1374.5,452.5 Z"/></g>
<g><path style="opacity:1" fill="#3d5b6e" d="M 891.5,457.5 C 891.334,464.841 891.5,472.174 892,479.5C 892.171,471.989 892.671,464.655 893.5,457.5C 893.5,464.833 893.5,472.167 893.5,479.5C 899.167,479.5 904.833,479.5 910.5,479.5C 905.015,480.327 899.348,480.827 893.5,481C 899.167,481.333 904.833,481.667 910.5,482C 904.058,482.083 897.725,482.749 891.5,484C 892.218,485.987 893.218,487.821 894.5,489.5C 896.722,485.288 897.889,485.621 898,490.5C 899.775,487.956 901.608,487.956 903.5,490.5C 899.878,491.325 896.211,491.825 892.5,492C 892.833,492.333 893.167,492.667 893.5,493C 898.019,493.175 902.353,493.675 906.5,494.5C 902.167,494.5 897.833,494.5 893.5,494.5C 893.826,503.349 893.493,512.016 892.5,520.5C 892.826,511.651 892.493,502.984 891.5,494.5C 890.316,493.312 890.316,492.145 891.5,491C 890.672,490.085 889.672,489.419 888.5,489C 890.698,487.33 891.032,485.33 889.5,483C 890.154,474.402 890.82,465.902 891.5,457.5 Z"/></g>
<g><path style="opacity:1" fill="#0b3049" d="M 1246.5,443.5 C 1247.17,443.5 1247.83,443.5 1248.5,443.5C 1248.5,468.833 1248.5,494.167 1248.5,519.5C 1247.83,519.5 1247.17,519.5 1246.5,519.5C 1246.5,494.167 1246.5,468.833 1246.5,443.5 Z"/></g>
<g><path style="opacity:1" fill="#19364d" d="M 756.5,449.5 C 766.588,464.01 776.922,478.343 787.5,492.5C 787.833,492.5 788.167,492.5 788.5,492.5C 791.23,493.991 791.063,495.325 788,496.5C 786.333,494.167 784.667,491.833 783,489.5C 782.646,491.807 781.646,492.141 780,490.5C 777.156,490.826 774.989,492.16 773.5,494.5C 778.186,500.431 782.519,507.098 786.5,514.5C 776.677,501.525 767.344,488.192 758.5,474.5C 760.451,475.716 761.951,477.382 763,479.5C 765.173,476.723 765.673,476.89 764.5,480C 766.422,481.46 767.089,483.127 766.5,485C 767.956,486.745 769.289,488.578 770.5,490.5C 771.689,491.429 773.022,491.762 774.5,491.5C 774.35,486.809 776.35,484.976 780.5,486C 778.413,482.492 776.08,479.158 773.5,476C 772.551,475.383 771.718,475.549 771,476.5C 770.667,475.833 770.333,475.167 770,474.5C 768.89,478.279 767.39,478.446 765.5,475C 766.672,474.581 767.672,473.915 768.5,473C 767.534,470.901 766.2,469.068 764.5,467.5C 765.167,466.833 765.833,466.167 766.5,465.5C 762.718,460.398 759.384,455.064 756.5,449.5 Z"/></g>
<g><path style="opacity:1" fill="#00091f" d="M 789.5,519.5 C 793.167,519.5 796.833,519.5 800.5,519.5C 800.5,494.167 800.5,468.833 800.5,443.5C 796.5,443.5 792.5,443.5 788.5,443.5C 788.5,459.833 788.5,476.167 788.5,492.5C 788.167,492.5 787.833,492.5 787.5,492.5C 787.5,475.833 787.5,459.167 787.5,442.5C 792.167,442.5 796.833,442.5 801.5,442.5C 801.5,468.5 801.5,494.5 801.5,520.5C 797.298,520.817 793.298,520.483 789.5,519.5 Z"/></g>
<g><path style="opacity:1" fill="#20445a" d="M 789.5,519.5 C 788.11,518.101 787.11,516.434 786.5,514.5C 782.519,507.098 778.186,500.431 773.5,494.5C 774.989,492.16 777.156,490.826 780,490.5C 781.646,492.141 782.646,491.807 783,489.5C 784.667,491.833 786.333,494.167 788,496.5C 791.063,495.325 791.23,493.991 788.5,492.5C 788.5,476.167 788.5,459.833 788.5,443.5C 792.5,443.5 796.5,443.5 800.5,443.5C 800.5,468.833 800.5,494.167 800.5,519.5C 796.833,519.5 793.167,519.5 789.5,519.5 Z"/></g>
<g><path style="opacity:1" fill="#0a2e47" d="M 754.5,446.5 C 750.726,443.738 746.393,442.738 741.5,443.5C 741.5,468.833 741.5,494.167 741.5,519.5C 740.833,519.5 740.167,519.5 739.5,519.5C 739.5,493.833 739.5,468.167 739.5,442.5C 743.846,442.334 748.179,442.501 752.5,443C 753.823,443.816 754.489,444.983 754.5,446.5 Z"/></g>
<g><path style="opacity:1" fill="#1d4157" d="M 992.5,444.5 C 1001.91,469.546 1011.24,494.713 1020.5,520C 1014.51,520.499 1008.51,520.666 1002.5,520.5C 1001.77,515.643 1000.44,510.976 998.5,506.5C 988.564,505.189 977.897,505.189 966.5,506.5C 965.295,507.995 965.295,509.328 966.5,510.5C 966.672,511.492 966.338,512.158 965.5,512.5C 963.935,513.507 962.935,515.507 962.5,518.5C 957.869,519.662 953.202,519.828 948.5,519C 949.717,517.352 950.55,515.519 951,513.5C 952.916,516.033 954.916,516.033 957,513.5C 958.049,514.517 959.216,514.684 960.5,514C 959.884,511.821 958.717,509.988 957,508.5C 955.388,511.079 953.888,511.079 952.5,508.5C 954.595,502.715 956.595,496.882 958.5,491C 958.43,490.235 958.097,489.735 957.5,489.5C 962.462,474.274 967.796,459.274 973.5,444.5C 979.833,443.167 986.167,443.167 992.5,444.5 Z"/></g>
<g><path style="opacity:1" fill="#9bafb7" d="M 973.5,490.5 C 979.979,491.491 986.646,491.824 993.5,491.5C 986.656,492.819 979.656,492.819 972.5,491.5C 972.624,490.893 972.957,490.56 973.5,490.5 Z"/></g>
<g><path style="opacity:1" fill="#f7f9f9" d="M 993.5,491.5 C 986.646,491.824 979.979,491.491 973.5,490.5C 976.354,480.437 979.521,470.437 983,460.5C 986.793,470.713 990.293,481.046 993.5,491.5 Z"/></g>
<g><path style="opacity:1" fill="#000a21" d="M 1370.5,471.5 C 1370.5,487.833 1370.5,504.167 1370.5,520.5C 1365.31,520.821 1360.31,520.487 1355.5,519.5C 1356.17,519.5 1356.83,519.5 1357.5,519.5C 1361.5,519.5 1365.5,519.5 1369.5,519.5C 1369.17,503.325 1369.5,487.325 1370.5,471.5 Z"/></g>
<g><path style="opacity:1" fill="#1e4158" d="M 1212.5,514.5 C 1212.44,513.957 1212.11,513.624 1211.5,513.5C 1206.99,516.756 1201.99,518.922 1196.5,520C 1189.97,520.229 1183.64,520.396 1177.5,520.5C 1168.5,518.147 1161.5,513.147 1156.5,505.5C 1142.57,476.243 1149.91,455.243 1178.5,442.5C 1196.42,438.452 1210.75,443.952 1221.5,459C 1217.25,461.374 1213.08,463.874 1209,466.5C 1200.4,455.641 1189.57,452.807 1176.5,458C 1164.03,466.478 1160.19,477.978 1165,492.5C 1174.35,508.362 1187.18,511.862 1203.5,503C 1205.51,499.931 1208.18,498.265 1211.5,498C 1215.04,499.931 1218.37,502.098 1221.5,504.5C 1219.19,508.476 1216.19,511.809 1212.5,514.5 Z"/></g>
<g><path style="opacity:1" fill="#0a233a" d="M 911.5,442.5 C 901.013,443.494 890.346,443.828 879.5,443.5C 879.5,468.833 879.5,494.167 879.5,519.5C 883.5,519.5 887.5,519.5 891.5,519.5C 891.5,511.167 891.5,502.833 891.5,494.5C 892.493,502.984 892.826,511.651 892.5,520.5C 887.5,520.5 882.5,520.5 877.5,520.5C 877.5,494.5 877.5,468.5 877.5,442.5C 888.833,442.5 900.167,442.5 911.5,442.5 Z"/></g>
<g><path style="opacity:1" fill="#00071e" d="M 754.5,471.5 C 754.5,487.833 754.5,504.167 754.5,520.5C 749.305,520.821 744.305,520.487 739.5,519.5C 740.167,519.5 740.833,519.5 741.5,519.5C 745.5,519.5 749.5,519.5 753.5,519.5C 753.17,503.325 753.504,487.325 754.5,471.5 Z"/></g>
<g><path style="opacity:1" fill="#010d24" d="M 1248.5,443.5 C 1247.83,443.5 1247.17,443.5 1246.5,443.5C 1242.5,443.5 1238.5,443.5 1234.5,443.5C 1234.5,468.833 1234.5,494.167 1234.5,519.5C 1238.5,519.5 1242.5,519.5 1246.5,519.5C 1247.17,519.5 1247.83,519.5 1248.5,519.5C 1243.69,520.487 1238.69,520.821 1233.5,520.5C 1233.5,494.5 1233.5,468.5 1233.5,442.5C 1238.69,442.179 1243.69,442.513 1248.5,443.5 Z"/></g>
<g><path style="opacity:1" fill="#1f4359" d="M 754.5,446.5 C 755.906,446.973 756.573,447.973 756.5,449.5C 759.384,455.064 762.718,460.398 766.5,465.5C 765.833,466.167 765.167,466.833 764.5,467.5C 766.2,469.068 767.534,470.901 768.5,473C 767.672,473.915 766.672,474.581 765.5,475C 767.39,478.446 768.89,478.279 770,474.5C 770.333,475.167 770.667,475.833 771,476.5C 771.718,475.549 772.551,475.383 773.5,476C 776.08,479.158 778.413,482.492 780.5,486C 776.35,484.976 774.35,486.809 774.5,491.5C 773.022,491.762 771.689,491.429 770.5,490.5C 769.289,488.578 767.956,486.745 766.5,485C 767.089,483.127 766.422,481.46 764.5,480C 765.673,476.89 765.173,476.723 763,479.5C 761.951,477.382 760.451,475.716 758.5,474.5C 757.363,473.211 756.03,472.211 754.5,471.5C 753.504,487.325 753.17,503.325 753.5,519.5C 749.5,519.5 745.5,519.5 741.5,519.5C 741.5,494.167 741.5,468.833 741.5,443.5C 746.393,442.738 750.726,443.738 754.5,446.5 Z"/></g>
<g><path style="opacity:1" fill="#13263c" d="M 1087.5,476.5 C 1088.1,476.735 1088.43,477.235 1088.5,478C 1083.46,492.327 1078.79,505.827 1074.5,518.5C 1079.12,519.493 1083.79,519.827 1088.5,519.5C 1088.25,517.599 1088.58,516.933 1089.5,517.5C 1089.5,518.5 1089.5,519.5 1089.5,520.5C 1083.82,520.666 1078.16,520.499 1072.5,520C 1077.2,505.387 1082.2,490.887 1087.5,476.5 Z"/></g>
<g><path style="opacity:1" fill="#031227" d="M 845.5,457.5 C 845.169,478.34 845.503,499.007 846.5,519.5C 841.695,520.487 836.695,520.821 831.5,520.5C 831.333,499.497 831.5,478.497 832,457.5C 832.5,478.164 832.667,498.831 832.5,519.5C 836.5,519.5 840.5,519.5 844.5,519.5C 844.169,498.66 844.503,477.993 845.5,457.5 Z"/></g>
<g><path style="opacity:1" fill="#020c1f" d="M 998.5,506.5 C 988.145,506.168 977.812,506.501 967.5,507.5C 966.873,508.417 966.539,509.417 966.5,510.5C 965.295,509.328 965.295,507.995 966.5,506.5C 977.897,505.189 988.564,505.189 998.5,506.5 Z"/></g>
<g><path style="opacity:1" fill="#1d4057" d="M 1099.5,443.5 C 1104.84,443.334 1110.18,443.501 1115.5,444C 1116.63,446.994 1117.96,449.16 1119.5,450.5C 1128.2,472.938 1136.54,495.605 1144.5,518.5C 1139.07,519.123 1133.73,519.79 1128.5,520.5C 1126.59,516.097 1125.26,511.43 1124.5,506.5C 1113.83,506.5 1103.17,506.5 1092.5,506.5C 1091.94,510.397 1090.94,514.063 1089.5,517.5C 1088.58,516.933 1088.25,517.599 1088.5,519.5C 1083.79,519.827 1079.12,519.493 1074.5,518.5C 1078.79,505.827 1083.46,492.327 1088.5,478C 1088.43,477.235 1088.1,476.735 1087.5,476.5C 1091.13,465.272 1095.13,454.272 1099.5,443.5 Z"/></g>
<g><path style="opacity:1" fill="#f2f5f5" d="M 1107.5,461.5 C 1112.12,471.358 1115.79,481.692 1118.5,492.5C 1111.83,492.5 1105.17,492.5 1098.5,492.5C 1101.66,482.212 1104.66,471.879 1107.5,461.5 Z"/></g>
<g><path style="opacity:1" fill="#152f45" d="M 957.5,489.5 C 958.097,489.735 958.43,490.235 958.5,491C 956.595,496.882 954.595,502.715 952.5,508.5C 953.888,511.079 955.388,511.079 957,508.5C 958.717,509.988 959.884,511.821 960.5,514C 959.216,514.684 958.049,514.517 957,513.5C 954.916,516.033 952.916,516.033 951,513.5C 950.55,515.519 949.717,517.352 948.5,519C 953.202,519.828 957.869,519.662 962.5,518.5C 962.935,515.507 963.935,513.507 965.5,512.5C 965.244,514.937 964.577,517.271 963.5,519.5C 958.208,520.495 952.875,520.828 947.5,520.5C 950.435,510.028 953.769,499.695 957.5,489.5 Z"/></g>
<g><path style="opacity:1" fill="#112d50" d="M 195.5,512.5 C 210.003,520.625 225.003,521.625 240.5,515.5C 240.938,515.435 241.272,515.601 241.5,516C 229.43,521.134 217.096,521.8 204.5,518C 201.102,516.643 198.102,514.81 195.5,512.5 Z"/></g>
<g><path style="opacity:1" fill="#1d4056" d="M 603.5,440.5 C 619.65,439.706 632.317,445.873 641.5,459C 637.323,461.184 633.157,463.35 629,465.5C 618.374,454.481 606.207,452.648 592.5,460C 580.989,471.615 579.489,484.449 588,498.5C 596.927,507.887 607.427,510.054 619.5,505C 622.678,502.486 625.844,499.986 629,497.5C 633.387,499.277 637.554,501.443 641.5,504C 633.651,516.011 622.484,522.178 608,522.5C 579.582,518.42 566.249,502.087 568,473.5C 573.352,455.307 585.186,444.307 603.5,440.5 Z"/></g>
<g><path style="opacity:1" fill="#1e4157" d="M 911.5,442.5 C 931.96,448.079 938.793,461.079 932,481.5C 929.283,485.719 925.783,489.052 921.5,491.5C 926.461,501.108 931.795,510.441 937.5,519.5C 932.156,519.666 926.823,519.499 921.5,519C 919.85,515.515 917.85,512.349 915.5,509.5C 912.248,504.666 909.248,499.666 906.5,494.5C 902.353,493.675 898.019,493.175 893.5,493C 893.167,492.667 892.833,492.333 892.5,492C 896.211,491.825 899.878,491.325 903.5,490.5C 901.608,487.956 899.775,487.956 898,490.5C 897.889,485.621 896.722,485.288 894.5,489.5C 893.218,487.821 892.218,485.987 891.5,484C 897.725,482.749 904.058,482.083 910.5,482C 904.833,481.667 899.167,481.333 893.5,481C 899.348,480.827 905.015,480.327 910.5,479.5C 918.125,477.254 920.792,472.254 918.5,464.5C 918.998,461.065 917.331,458.565 913.5,457C 906.901,455.504 900.234,455.171 893.5,456C 892.584,456.278 891.918,456.778 891.5,457.5C 890.82,465.902 890.154,474.402 889.5,483C 891.032,485.33 890.698,487.33 888.5,489C 889.672,489.419 890.672,490.085 891.5,491C 890.316,492.145 890.316,493.312 891.5,494.5C 891.5,502.833 891.5,511.167 891.5,519.5C 887.5,519.5 883.5,519.5 879.5,519.5C 879.5,494.167 879.5,468.833 879.5,443.5C 890.346,443.828 901.013,443.494 911.5,442.5 Z"/></g>
<g><path style="opacity:1" fill="#fcfcfc" d="M 893.5,457.5 C 899.842,457.334 906.175,457.5 912.5,458C 915.409,459.406 917.409,461.572 918.5,464.5C 920.792,472.254 918.125,477.254 910.5,479.5C 904.833,479.5 899.167,479.5 893.5,479.5C 893.5,472.167 893.5,464.833 893.5,457.5 Z"/></g>
<g><path style="opacity:1" fill="#092541" d="M 918.5,464.5 C 917.409,461.572 915.409,459.406 912.5,458C 906.175,457.5 899.842,457.334 893.5,457.5C 892.671,464.655 892.171,471.989 892,479.5C 891.5,472.174 891.334,464.841 891.5,457.5C 891.918,456.778 892.584,456.278 893.5,456C 900.234,455.171 906.901,455.504 913.5,457C 917.331,458.565 918.998,461.065 918.5,464.5 Z"/></g>
<g><path style="opacity:1" fill="#0a1322" d="M 915.5,509.5 C 917.85,512.349 919.85,515.515 921.5,519C 926.823,519.499 932.156,519.666 937.5,519.5C 932.589,520.647 926.922,520.814 920.5,520C 918.421,516.676 916.754,513.176 915.5,509.5 Z"/></g>
<g><path style="opacity:1" fill="#010717" d="M 1144.5,518.5 C 1144.61,519.117 1144.94,519.617 1145.5,520C 1139.84,520.499 1134.18,520.666 1128.5,520.5C 1133.73,519.79 1139.07,519.123 1144.5,518.5 Z"/></g>
<g><path style="opacity:1" fill="#071c34" d="M 1212.5,514.5 C 1201.74,521.31 1190.07,523.31 1177.5,520.5C 1183.64,520.396 1189.97,520.229 1196.5,520C 1201.99,518.922 1206.99,516.756 1211.5,513.5C 1212.11,513.624 1212.44,513.957 1212.5,514.5 Z"/></g>
<g><path style="opacity:1" fill="#051831" d="M 952.5,578.5 C 952.565,578.938 952.399,579.272 952,579.5C 951.626,578.584 951.126,577.75 950.5,577C 944.833,576.333 939.167,576.333 933.5,577C 932.896,579.473 931.896,580.973 930.5,581.5C 931.15,579.565 931.483,577.565 931.5,575.5C 938.175,575.334 944.842,575.5 951.5,576C 952.252,576.671 952.586,577.504 952.5,578.5 Z"/></g>
<g><path style="opacity:1" fill="#1d4056" d="M 1187.5,574.5 C 1196.79,577.29 1203.46,583.123 1207.5,592C 1203.27,594.411 1198.77,596.244 1194,597.5C 1189.05,590.216 1182.21,587.383 1173.5,589C 1166.38,592.139 1164.71,597.139 1168.5,604C 1178.88,608.465 1189.22,613.132 1199.5,618C 1211.96,628.07 1213.79,639.904 1205,653.5C 1194.74,662.554 1182.91,665.387 1169.5,662C 1158.65,658.488 1150.99,651.488 1146.5,641C 1151.29,638.681 1156.29,636.848 1161.5,635.5C 1168.42,646.973 1178.09,650.14 1190.5,645C 1194.79,639.643 1194.45,634.643 1189.5,630C 1180,626.39 1170.67,622.39 1161.5,618C 1149.86,610.262 1146.86,600.095 1152.5,587.5C 1154.95,585.579 1157.62,583.079 1160.5,580C 1162.5,579 1164.5,578 1166.5,577C 1173.6,575.947 1180.6,575.113 1187.5,574.5 Z"/></g>
<g><path style="opacity:1" fill="#1d4056" d="M 952.5,578.5 C 962.77,605.803 972.77,633.303 982.5,661C 976.5,661.667 970.5,661.667 964.5,661C 962.606,656.263 960.939,651.43 959.5,646.5C 948.167,645.167 936.833,645.167 925.5,646.5C 923.695,651.389 922.361,656.389 921.5,661.5C 915.5,661.5 909.5,661.5 903.5,661.5C 911.727,634.485 920.727,607.818 930.5,581.5C 931.896,580.973 932.896,579.473 933.5,577C 939.167,576.333 944.833,576.333 950.5,577C 951.126,577.75 951.626,578.584 952,579.5C 952.399,579.272 952.565,578.938 952.5,578.5 Z"/></g>
<g><path style="opacity:1" fill="#0d243d" d="M 1187.5,574.5 C 1180.6,575.113 1173.6,575.947 1166.5,577C 1164.5,578 1162.5,579 1160.5,580C 1157.62,583.079 1154.95,585.579 1152.5,587.5C 1161,575.109 1172.67,570.776 1187.5,574.5 Z"/></g>
<g><path style="opacity:1" fill="#f8fafa" d="M 941.5,594.5 C 945.649,605.604 949.649,616.938 953.5,628.5C 946.197,629.497 938.863,629.831 931.5,629.5C 934.988,617.883 938.321,606.216 941.5,594.5 Z"/></g>
<g><path style="opacity:1" fill="#1f445a" d="M 860.5,644.5 C 870.5,644.5 880.5,644.5 890.5,644.5C 880.675,645.33 870.675,645.83 860.5,646C 870.494,646.5 880.494,646.666 890.5,646.5C 890.5,650.833 890.5,655.167 890.5,659.5C 875.167,659.5 859.833,659.5 844.5,659.5C 844.5,631.833 844.5,604.167 844.5,576.5C 849.5,576.5 854.5,576.5 859.5,576.5C 859.169,599.339 859.503,622.006 860.5,644.5 Z"/></g>
<g><path style="opacity:1" fill="#020d24" d="M 607.5,575.5 C 597.347,576.494 587.014,576.828 576.5,576.5C 576.5,604.833 576.5,633.167 576.5,661.5C 575.502,633.005 575.169,604.338 575.5,575.5C 586.167,575.5 596.833,575.5 607.5,575.5 Z"/></g>
<g><path style="opacity:1" fill="#021330" d="M 1063.5,575.5 C 1058.69,576.487 1053.69,576.821 1048.5,576.5C 1048.83,594.008 1048.5,611.341 1047.5,628.5C 1047.5,610.833 1047.5,593.167 1047.5,575.5C 1052.83,575.5 1058.17,575.5 1063.5,575.5 Z"/></g>
<g><path style="opacity:1" fill="#1e4359" d="M 1099.5,591.5 C 1099.5,597.5 1099.5,603.5 1099.5,609.5C 1099.5,609.833 1099.5,610.167 1099.5,610.5C 1109.32,611.494 1119.32,611.827 1129.5,611.5C 1129.5,615.833 1129.5,620.167 1129.5,624.5C 1119.32,624.173 1109.32,624.506 1099.5,625.5C 1098.17,632.235 1098.17,639.068 1099.5,646C 1111.16,646.5 1122.83,646.667 1134.5,646.5C 1134.5,650.833 1134.5,655.167 1134.5,659.5C 1117.5,659.5 1100.5,659.5 1083.5,659.5C 1083.5,631.833 1083.5,604.167 1083.5,576.5C 1100.17,576.5 1116.83,576.5 1133.5,576.5C 1133.5,581.167 1133.5,585.833 1133.5,590.5C 1121.99,590.172 1110.65,590.505 1099.5,591.5 Z"/></g>
<g><path style="opacity:1" fill="#142943" d="M 683.5,591.5 C 693.751,590.501 704.751,590.168 716.5,590.5C 716.5,585.833 716.5,581.167 716.5,576.5C 700.167,576.5 683.833,576.5 667.5,576.5C 667.5,604.167 667.5,631.833 667.5,659.5C 667.5,660.167 667.5,660.833 667.5,661.5C 665.508,633.186 664.841,604.519 665.5,575.5C 682.833,575.5 700.167,575.5 717.5,575.5C 717.5,580.833 717.5,586.167 717.5,591.5C 706.167,591.5 694.833,591.5 683.5,591.5 Z"/></g>
<g><path style="opacity:1" fill="#23465c" d="M 683.5,591.5 C 683.5,597.5 683.5,603.5 683.5,609.5C 694.014,609.172 704.347,609.506 714.5,610.5C 704.161,610.334 693.828,610.5 683.5,611C 693.494,611.5 703.494,611.666 713.5,611.5C 713.5,615.833 713.5,620.167 713.5,624.5C 703.494,624.334 693.494,624.5 683.5,625C 693.828,625.5 704.161,625.666 714.5,625.5C 704.347,626.494 694.014,626.828 683.5,626.5C 683.5,632.5 683.5,638.5 683.5,644.5C 682.672,638.681 682.172,632.681 682,626.5C 681.19,633.082 681.357,639.582 682.5,646C 694.162,646.5 705.829,646.667 717.5,646.5C 717.5,650.833 717.5,655.167 717.5,659.5C 700.833,659.5 684.167,659.5 667.5,659.5C 667.5,631.833 667.5,604.167 667.5,576.5C 683.833,576.5 700.167,576.5 716.5,576.5C 716.5,581.167 716.5,585.833 716.5,590.5C 704.751,590.168 693.751,590.501 683.5,591.5 Z"/></g>
<g><path style="opacity:1" fill="#7bb98b" d="M 271.5,680.5 C 222.659,673.251 181.659,651.584 148.5,615.5C 150.142,603.461 152.642,591.461 156,579.5C 159.091,568.763 164.924,559.93 173.5,553C 192.043,544.062 211.043,536.228 230.5,529.5C 231.521,530.002 231.688,530.668 231,531.5C 223.789,542.752 216.956,554.252 210.5,566C 217.348,569.59 224.348,572.923 231.5,576C 225.658,581.011 219.991,586.177 214.5,591.5C 233.261,621.365 252.261,651.031 271.5,680.5 Z"/></g>
<g><path style="opacity:1" fill="#00122a" d="M 1010.5,578.5 C 1009.71,578.217 1009.04,577.717 1008.5,577C 1004.18,576.501 999.846,576.334 995.5,576.5C 995.5,604.833 995.5,633.167 995.5,661.5C 994.502,633.005 994.169,604.338 994.5,575.5C 999.511,575.334 1004.51,575.501 1009.5,576C 1010.25,576.671 1010.59,577.504 1010.5,578.5 Z"/></g>
<g><path style="opacity:1" fill="#7bb98b" d="M 449.5,617.5 C 415.973,652.767 374.973,674.101 326.5,681.5C 344.979,651.218 363.979,621.218 383.5,591.5C 378.009,586.177 372.342,581.011 366.5,576C 373.844,572.995 380.844,569.495 387.5,565.5C 380.918,554.001 374.085,542.667 367,531.5C 366.312,530.668 366.479,530.002 367.5,529.5C 383.167,535.667 398.833,541.833 414.5,548C 425.274,552.441 433.107,559.941 438,570.5C 443.553,585.871 447.386,601.538 449.5,617.5 Z"/></g>
<g><path style="opacity:1" fill="#00122c" d="M 714.5,610.5 C 714.5,615.5 714.5,620.5 714.5,625.5C 704.161,625.666 693.828,625.5 683.5,625C 693.494,624.5 703.494,624.334 713.5,624.5C 713.5,620.167 713.5,615.833 713.5,611.5C 703.494,611.666 693.494,611.5 683.5,611C 693.828,610.5 704.161,610.334 714.5,610.5 Z"/></g>
<g><path style="opacity:1" fill="#1c3049" d="M 804.5,575.5 C 793.346,576.495 782.012,576.828 770.5,576.5C 770.5,604.833 770.5,633.167 770.5,661.5C 768.508,633.186 767.841,604.519 768.5,575.5C 780.5,575.5 792.5,575.5 804.5,575.5 Z"/></g>
<g><path style="opacity:1" fill="#00142d" d="M 1099.5,610.5 C 1109.83,610.5 1120.17,610.5 1130.5,610.5C 1130.5,615.5 1130.5,620.5 1130.5,625.5C 1120.17,625.5 1109.83,625.5 1099.5,625.5C 1109.32,624.506 1119.32,624.173 1129.5,624.5C 1129.5,620.167 1129.5,615.833 1129.5,611.5C 1119.32,611.827 1109.32,611.494 1099.5,610.5 Z"/></g>
<g><path style="opacity:1" fill="#768b97" d="M 1099.5,610.5 C 1099.5,610.167 1099.5,609.833 1099.5,609.5C 1110.17,609.5 1120.83,609.5 1131.5,609.5C 1131.5,615.167 1131.5,620.833 1131.5,626.5C 1120.83,626.5 1110.17,626.5 1099.5,626.5C 1099.5,626.167 1099.5,625.833 1099.5,625.5C 1109.83,625.5 1120.17,625.5 1130.5,625.5C 1130.5,620.5 1130.5,615.5 1130.5,610.5C 1120.17,610.5 1109.83,610.5 1099.5,610.5 Z"/></g>
<g><path style="opacity:1" fill="#1d4157" d="M 1063.5,575.5 C 1064.5,603.995 1064.83,632.662 1064.5,661.5C 1059.13,661.828 1053.79,661.495 1048.5,660.5C 1036.49,643.138 1024.49,625.804 1012.5,608.5C 1012.44,607.957 1012.11,607.624 1011.5,607.5C 1010.5,625.488 1010.17,643.488 1010.5,661.5C 1005.5,661.5 1000.5,661.5 995.5,661.5C 995.5,633.167 995.5,604.833 995.5,576.5C 999.846,576.334 1004.18,576.501 1008.5,577C 1009.04,577.717 1009.71,578.217 1010.5,578.5C 1022.86,594.708 1034.69,611.375 1046,628.5C 1046.69,629.738 1047.19,629.738 1047.5,628.5C 1048.5,611.341 1048.83,594.008 1048.5,576.5C 1053.69,576.821 1058.69,576.487 1063.5,575.5 Z"/></g>
<g><path style="opacity:1" fill="#afbdc3" d="M 1012.5,608.5 C 1011.83,626.167 1011.17,643.833 1010.5,661.5C 1010.17,643.488 1010.5,625.488 1011.5,607.5C 1012.11,607.624 1012.44,607.957 1012.5,608.5 Z"/></g>
<g><path style="opacity:1" fill="#20445a" d="M 804.5,575.5 C 825.797,580.071 833.963,593.071 829,614.5C 825.147,625.013 817.647,631.179 806.5,633C 799.842,633.5 793.175,633.666 786.5,633.5C 786.5,642.833 786.5,652.167 786.5,661.5C 781.167,661.5 775.833,661.5 770.5,661.5C 770.5,633.167 770.5,604.833 770.5,576.5C 782.012,576.828 793.346,576.495 804.5,575.5 Z"/></g>
<g><path style="opacity:1" fill="#091f3a" d="M 809.5,615.5 C 814.163,609.196 814.663,602.53 811,595.5C 809.421,593.959 807.587,592.792 805.5,592C 799.175,591.5 792.842,591.334 786.5,591.5C 792.415,590.351 799.081,590.184 806.5,591C 810.333,592.167 812.833,594.667 814,598.5C 815.091,604.097 814.424,609.43 812,614.5C 811.329,615.252 810.496,615.586 809.5,615.5 Z"/></g>
<g><path style="opacity:1" fill="#f9fafa" d="M 786.5,591.5 C 792.842,591.334 799.175,591.5 805.5,592C 807.587,592.792 809.421,593.959 811,595.5C 814.663,602.53 814.163,609.196 809.5,615.5C 801.979,617.308 794.312,617.975 786.5,617.5C 786.5,608.833 786.5,600.167 786.5,591.5 Z"/></g>
<g><path style="opacity:1" fill="#010b1e" d="M 860.5,644.5 C 859.503,622.006 859.169,599.339 859.5,576.5C 854.5,576.5 849.5,576.5 844.5,576.5C 844.5,604.167 844.5,631.833 844.5,659.5C 844.5,660.167 844.5,660.833 844.5,661.5C 843.502,633.005 843.169,604.338 843.5,575.5C 849.167,575.5 854.833,575.5 860.5,575.5C 860.5,598.5 860.5,621.5 860.5,644.5 Z"/></g>
<g><path style="opacity:1" fill="#1e4158" d="M 607.5,575.5 C 637.01,579.174 651.177,595.841 650,625.5C 645.835,646.663 633.001,658.496 611.5,661C 599.838,661.5 588.171,661.667 576.5,661.5C 576.5,633.167 576.5,604.833 576.5,576.5C 587.014,576.828 597.347,576.494 607.5,575.5 Z"/></g>
<g><path style="opacity:1" fill="#001730" d="M 612.5,591.5 C 605.833,591.5 599.167,591.5 592.5,591.5C 592.5,609.167 592.5,626.833 592.5,644.5C 591.501,627.244 591.168,609.244 591.5,590.5C 599.258,590.167 606.258,590.501 612.5,591.5 Z"/></g>
<g><path style="opacity:1" fill="#fdfdfc" d="M 612.5,591.5 C 630.48,597.448 636.98,609.781 632,628.5C 629.167,635.333 624.333,640.167 617.5,643C 609.236,644.37 600.903,644.87 592.5,644.5C 592.5,626.833 592.5,609.167 592.5,591.5C 599.167,591.5 605.833,591.5 612.5,591.5 Z"/></g>
<g><path style="opacity:1" fill="#133049" d="M 683.5,644.5 C 695.5,644.5 707.5,644.5 719.5,644.5C 719.5,650.167 719.5,655.833 719.5,661.5C 702.167,661.5 684.833,661.5 667.5,661.5C 667.5,660.833 667.5,660.167 667.5,659.5C 684.167,659.5 700.833,659.5 717.5,659.5C 717.5,655.167 717.5,650.833 717.5,646.5C 705.829,646.667 694.162,646.5 682.5,646C 681.357,639.582 681.19,633.082 682,626.5C 682.172,632.681 682.672,638.681 683.5,644.5 Z"/></g>
<g><path style="opacity:1" fill="#072a43" d="M 890.5,644.5 C 891.489,649.975 891.822,655.642 891.5,661.5C 875.833,661.5 860.167,661.5 844.5,661.5C 844.5,660.833 844.5,660.167 844.5,659.5C 859.833,659.5 875.167,659.5 890.5,659.5C 890.5,655.167 890.5,650.833 890.5,646.5C 880.494,646.666 870.494,646.5 860.5,646C 870.675,645.83 880.675,645.33 890.5,644.5 Z"/></g>
<g><path style="opacity:1" fill="#0c2943" d="M 1099.5,591.5 C 1110.65,590.505 1121.99,590.172 1133.5,590.5C 1133.5,585.833 1133.5,581.167 1133.5,576.5C 1116.83,576.5 1100.17,576.5 1083.5,576.5C 1083.5,604.167 1083.5,631.833 1083.5,659.5C 1100.5,659.5 1117.5,659.5 1134.5,659.5C 1134.5,655.167 1134.5,650.833 1134.5,646.5C 1122.83,646.667 1111.16,646.5 1099.5,646C 1098.17,639.068 1098.17,632.235 1099.5,625.5C 1099.5,625.833 1099.5,626.167 1099.5,626.5C 1099.5,632.5 1099.5,638.5 1099.5,644.5C 1111.83,644.5 1124.17,644.5 1136.5,644.5C 1136.5,650.167 1136.5,655.833 1136.5,661.5C 1118.5,661.5 1100.5,661.5 1082.5,661.5C 1082.5,632.833 1082.5,604.167 1082.5,575.5C 1099.83,575.5 1117.17,575.5 1134.5,575.5C 1134.5,580.833 1134.5,586.167 1134.5,591.5C 1122.83,591.5 1111.17,591.5 1099.5,591.5 Z"/></g>
</svg>
